<?xml version="1.0" standalone="no"?>
<!DOCTYPE svg PUBLIC "-//W3C//DTD SVG 20010904//EN"
 "http://www.w3.org/TR/2001/REC-SVG-20010904/DTD/svg10.dtd">
<svg version="1.0" xmlns="http://www.w3.org/2000/svg"
 width="1611.000000pt" height="1611.000000pt" viewBox="0 0 1611.000000 1611.000000"
 preserveAspectRatio="xMidYMid meet">
<metadata>
Created by potrace 1.14, written by Peter Selinger 2001-2017
</metadata>
<g transform="translate(0.000000,1611.000000) scale(0.100000,-0.100000)"
fill="#000000" stroke="none">
<path d="M7709 15746 c-2 -2 -66 -7 -141 -10 -76 -4 -148 -9 -160 -11 -13 -2
-58 -6 -100 -10 -43 -3 -92 -8 -110 -11 -18 -2 -53 -6 -78 -9 -44 -5 -69 -8
-153 -20 -76 -11 -91 -13 -192 -31 -55 -9 -109 -18 -120 -20 -58 -8 -309 -63
-460 -99 -316 -76 -814 -240 -1085 -357 -25 -10 -54 -23 -65 -28 -288 -121
-658 -309 -929 -472 -853 -513 -1600 -1182 -2184 -1953 -50 -66 -99 -131 -110
-145 -10 -14 -59 -83 -108 -155 -315 -459 -574 -939 -789 -1464 -47 -115 -133
-343 -140 -371 -2 -8 -18 -55 -35 -105 -33 -97 -136 -445 -144 -489 -3 -15
-11 -50 -20 -79 -8 -29 -20 -79 -27 -112 -7 -33 -14 -64 -15 -70 -1 -5 -18
-89 -37 -185 -34 -168 -42 -214 -52 -290 -3 -19 -7 -44 -9 -56 -2 -12 -7 -45
-11 -75 -3 -30 -8 -65 -10 -79 -2 -14 -7 -47 -10 -75 -3 -27 -7 -68 -9 -90 -5
-36 -10 -91 -21 -230 -11 -132 -19 -372 -19 -580 0 -220 10 -548 18 -592 3
-11 7 -61 10 -109 4 -49 8 -100 10 -114 2 -14 7 -52 11 -85 7 -71 53 -389 60
-425 3 -14 8 -40 11 -59 7 -41 12 -68 19 -101 11 -50 16 -76 26 -130 15 -79
94 -396 130 -520 365 -1257 1020 -2369 1944 -3296 400 -401 764 -699 1230
-1006 415 -274 960 -558 1375 -717 47 -18 94 -37 105 -42 72 -32 356 -128 550
-186 479 -143 1080 -257 1520 -288 44 -3 112 -7 150 -10 231 -17 669 -22 870
-11 217 13 281 17 305 21 14 2 61 6 105 10 44 3 91 8 105 10 14 2 50 6 81 10
31 3 67 8 79 10 12 2 48 7 79 10 31 4 63 8 71 10 8 2 35 7 60 10 25 4 92 16
150 26 58 11 116 22 130 25 20 4 96 20 180 39 8 2 48 11 89 19 40 9 76 18 80
21 4 2 19 6 33 9 62 11 271 71 478 138 831 267 1661 707 2345 1243 102 80 93
72 240 195 303 254 650 601 911 910 49 58 93 110 99 116 5 6 21 26 35 44 14
18 43 56 66 84 90 113 244 328 341 476 34 52 66 100 70 105 14 17 127 204 208
345 98 170 284 541 363 725 65 149 85 197 86 205 1 3 20 52 43 110 59 149 124
340 177 520 26 85 51 169 56 185 15 50 88 344 105 430 25 120 25 118 30 145 3
14 7 36 10 50 6 29 34 194 40 230 22 148 22 148 35 260 6 52 13 109 15 125 2
17 7 66 10 110 4 44 8 96 10 115 25 247 25 994 0 1185 -2 17 -7 66 -10 110 -4
44 -8 94 -10 110 -2 17 -7 57 -10 90 -20 203 -97 648 -146 840 -12 44 -22 87
-24 95 -9 45 -51 200 -81 305 -195 666 -474 1297 -827 1868 -51 81 -96 155
-102 165 -12 21 -107 163 -118 177 -8 10 -93 131 -119 168 -63 91 -346 446
-429 538 -13 14 -60 66 -104 115 -273 304 -681 678 -1015 931 -52 40 -100 76
-105 80 -62 48 -125 93 -130 93 -4 0 -14 7 -22 16 -33 33 -394 263 -603 384
-144 84 -490 261 -651 333 -587 264 -1251 467 -1854 567 -33 5 -69 12 -80 14
-11 2 -45 7 -75 11 -30 4 -62 9 -71 10 -9 2 -40 6 -70 10 -30 3 -65 8 -79 10
-14 2 -54 7 -90 10 -36 4 -78 9 -95 11 -16 2 -70 6 -120 9 -49 3 -103 8 -120
11 -35 6 -850 15 -856 10z"/>
</g>
</svg>
